<svg id="Capa_1" enable-background="new 0 0 512 460.6" height="512" viewBox="0 0 512 460.6" width="512" xmlns="http://www.w3.org/2000/svg"><g><g><g><path d="m197.2 432.9-7.1 7.1c-13.8 13.8-31.8 20.6-49.7 20.6-18 0-36-6.9-49.8-20.6l-70.1-70.1c-26.8-26.9-27.4-70.2-1.5-97.7 5.1-4.6 10.3-8.7 15.3-12.3l.1-.1c44.5-32.9 84.6-38.7 104-54.4 14-11.4 26.1-41.7 44.5-70.3 13-20.2 33.2-28.4 47-31.7 3.8-.9 7.7.2 10.3 2.9 4.3 4.3 4.3 11.2 0 15.6l-7.4 7.4c-15.3 15.3-15.3 40.2 0 55.7 4 4 14.1 4.8 18.2.8l6.1 41.1c-7.3 7.3-6.8 22.6.4 30 20 20.4 41.4 9.2 52.1 1 4.2-3.2 10.1-2.8 13.9.9 2.8 2.8 3.8 6.8 2.7 10.6-1.8 5.9-5.7 14.9-13.6 23.2-13.2 14-51.5 21.6-68.2 43.4-16.6 21.7-17.3 60.8-47.2 96.9z" fill="#a52b31"/></g><g><path d="m172.8 400.1-.2-.2c-2.3-2.3-4-5.2-4.8-8.4l-.1-.3c-4.8-18.6-14.4-35.4-28-49l-39.8-39.8c-8.8-8.8-8.8-23 0-31.8l2-2c14.9-14.9 33.7-25.1 54-30.8 13.9-3.8 26.7-11.4 36.7-22.1l19.3-31.9c1.2-1.3 2.9-2.1 4.8-2.3 2.7-.3 5.3.9 6.9 3.1.9 2 2.1 4.2 3.8 6.6 2.4 3.7 5.2 6.3 7.4 8.3.8.2 1.8.4 2.8.6.9.1 1.9.2 2.8.3l3.6 23.7c-3.2 5.2-4.8 11.4-4.8 17.6v.2c.1 8.7 3.2 17.3 9.2 23.4l.4.4c18.3 18.3 41.4 19.7 64.1 4-1.8 4.4-4.8 9.9-9.7 15.2-4.1 4.3-14 9-23.4 13.4-16 7.4-34.2 16-45.5 30.9-8.2 10.7-12.8 24.2-17.8 38.7-2.1 6-6.9 16.7-11.6 26.8-6.3 12.3-22.5 15.1-32.1 5.4z" fill="#fff"/></g><path d="m163.1 347.5-50-50c-1.6-1.6-4-1.6-5.6 0l-20.1 20.1c-1.6 1.6-1.6 4 0 5.6l50 50c1.6 1.6 4 1.6 5.6 0l20.1-20.1c1.6-1.6 1.6-4.1 0-5.6z" fill="#b3b3b3"/><g><g><path d="m183.5 237.7c-2.8 2.8-2.6 7.6.7 10.7l28.4 28.4c3.1 3.1 7.9 3.3 10.7.7 2.8-2.8 2.6-7.6-.7-10.7l-28.4-28.4c-3.1-3.2-7.9-3.5-10.7-.7z" fill="#b3b3b3"/></g></g><g><g><path d="m161.8 259.4c-2.8 2.8-2.6 7.6.7 10.7l28.4 28.4c3.1 3.1 7.9 3.3 10.7.7 2.8-2.8 2.6-7.6-.7-10.7l-28.4-28.4c-3.1-3.2-7.9-3.4-10.7-.7z" fill="#b3b3b3"/></g></g><g><g><path d="m144.9 277.8c-3.6 1.9-4.6 6.3-2.2 10.1l20.7 34.1c2.2 3.8 6.9 5.2 10.4 3.4 3.6-1.9 4.6-6.3 2.2-10.1l-20.7-34.1c-2.2-3.7-6.9-5.3-10.4-3.4z" fill="#b3b3b3"/></g></g><g><ellipse cx="143.9" cy="412.1" fill="#b3b3b3" rx="12.6" ry="26.7"/></g><g><path d="m233.8 247.9v.1-.3z" fill="#fff"/></g><g><path d="m236.8 238.5-24.4-24.5c-4.2-4.2-4.1-11 .3-15.1l164.2-153 28 28-153 164.3c-4.1 4.3-10.9 4.5-15.1.3z" fill="#c69c6d"/></g><g><path d="m378.2 102.4-29.8-29.8c-1.2-1.2-1.2-3.2 0-4.4s3.2-1.2 4.4 0l29.8 29.8c1.2 1.2 1.2 3.2 0 4.4s-3.2 1.2-4.4 0z" fill="#b3b3b3"/></g><g><path d="m356.7 125.5-31.4-31.4c-1.2-1.2-1.2-3.2 0-4.4s3.2-1.2 4.4 0l31.4 31.4c1.2 1.2 1.2 3.2 0 4.4-1.3 1.2-3.2 1.2-4.4 0z" fill="#b3b3b3"/></g><g><path d="m335.2 148.6-33-33c-1.2-1.2-1.2-3.2 0-4.4s3.2-1.2 4.4 0l33 33c1.2 1.2 1.2 3.2 0 4.4s-3.2 1.2-4.4 0z" fill="#b3b3b3"/></g><g><path d="m313.6 171.8-34.5-34.5c-1.2-1.2-1.2-3.2 0-4.4s3.2-1.2 4.4 0l34.5 34.5c1.2 1.2 1.2 3.2 0 4.4s-3.2 1.2-4.4 0z" fill="#b3b3b3"/></g><g><path d="m292.1 194.9-36.1-36.1c-1.2-1.2-1.2-3.2 0-4.4s3.2-1.2 4.4 0l36.1 36.1c1.2 1.2 1.2 3.2 0 4.4s-3.2 1.2-4.4 0z" fill="#b3b3b3"/></g><g><path d="m270.5 218-37.7-37.7c-1.2-1.2-1.2-3.2 0-4.4s3.2-1.2 4.4 0l37.7 37.7c1.2 1.2 1.2 3.2 0 4.4s-3.2 1.2-4.4 0z" fill="#b3b3b3"/></g><g><path d="m511.9 18.6c-3.5-12.8-16.4-20.7-29.5-18l-97.8 20.2c-3 .6-5.3 3.2-5.5 6.3l-1.4 19.5 27.1 27.1c10.8-10.8 23.8-19.3 38.1-24.9l67.1-26.3c1.5-.6 2.3-2.3 1.9-3.9z" fill="#cfcba3"/></g></g><g><g><path d="m197.2 432.9-7.1 7.1c-13.8 13.8-31.8 20.6-49.6 20.6-18 0-36-6.9-49.8-20.6l-39.9-39.9 202.2-202.2.4 2.9 3.8 25.9c-2.8 2.8-4.5 6.9-5 11.2-.9 6.8 1.1 14.2 5.5 18.8 20 20.5 41.4 9.2 52.1 1 4.2-3.2 10.1-2.7 13.9.9 2.8 2.8 3.8 6.8 2.7 10.6-1.8 5.9-5.7 14.9-13.6 23.2-13.2 14-51.5 21.5-68.2 43.4-16.8 21.9-17.5 61-47.4 97.1z" fill="#8b2829"/></g><g><path d="m172.8 400.1-.2-.2c-2.3-2.3-4-5.2-4.8-8.4l-.1-.3c-2.7-10.6-7.1-20.7-12.8-29.9-4.3-6.9-9.4-13.3-15.2-19.1l-15.5-15.5 117.5-117.5 2.2 14.9c-3 4.8-4.5 10.5-4.7 16.2v1.4.2c.1 8.7 3.2 17.3 9.2 23.5l.4.4c18.3 18.3 41.4 19.6 64.1 4-1.8 4.4-4.8 9.9-9.7 15.2-4.1 4.3-14 9-23.4 13.5-16 7.4-34.2 16-45.5 30.9-8.2 10.7-12.8 24.2-17.8 38.7-2.1 6-6.9 16.7-11.6 26.8-6.2 12.1-22.5 14.9-32.1 5.2z" fill="#d9d9d9"/></g><path d="m163.1 353-20.1 20.1c-1.6 1.6-4 1.6-5.6 0l-29.9-29.9 25.7-25.7 29.9 29.9c1.5 1.6 1.5 4.1 0 5.6z" fill="#999897"/><g><g><path d="m223.3 277.5c-2.8 2.7-7.5 2.4-10.7-.7l-19.3-19.3 10-10 19.4 19.4c3.2 3.2 3.3 7.9.6 10.6z" fill="#999897"/></g></g><g><g><path d="m201.6 299.2c-2.8 2.7-7.5 2.4-10.7-.7l-19.3-19.3 10-10 19.4 19.4c3.2 3.2 3.3 7.9.6 10.6z" fill="#999897"/></g></g><g><g><path d="m175.4 324.3c-.5.5-1 .8-1.6 1.2-3.6 1.8-8.2.3-10.4-3.4l-13-21.5 10.4-10.4 15.3 25.2c1.8 3.1 1.5 6.7-.7 8.9z" fill="#999897"/></g></g><g><ellipse cx="143.9" cy="412.1" fill="#999897" rx="12.6" ry="26.7"/></g><g><path d="m233.8 247.9v.1-.3z" fill="#fff"/></g><g><path d="m252.2 237.9-.3.3c-3.4 3.6-8.7 4.3-12.7 2-.8-.4-1.6-1-2.3-1.7l-12.2-12.2 166.2-166.4 14 14-22.4 24.1-4.2 4.5-17.3 18.6-4.2 4.5-17.3 18.6-4.2 4.5-17.3 18.6-4.2 4.5-17.3 18.6-4.2 4.5-17.3 18.6-4.2 4.5z" fill="#a3815b"/></g><g><path d="m382.6 102.4c-1.2 1.2-3.1 1.2-4.3.1l-15-15 4.4-4.4 14.9 14.9c1.2 1.2 1.2 3.2 0 4.4z" fill="#b3b3b3"/></g><g><path d="m361.1 125.5c-1.2 1.2-3.1 1.2-4.3.1l-15.8-15.8 4.4-4.4 15.7 15.7c1.2 1.3 1.2 3.2 0 4.4z" fill="#b3b3b3"/></g><g><path d="m339.5 148.6c-1.2 1.2-3.1 1.2-4.3.1l-16.5-16.5 4.4-4.4 16.5 16.5c1.1 1.2 1.1 3.1-.1 4.3z" fill="#b3b3b3"/></g><g><path d="m318 171.8c-1.2 1.2-3.1 1.2-4.3.1l-17.4-17.4 4.4-4.4 17.3 17.3c1.2 1.2 1.2 3.2 0 4.4z" fill="#b3b3b3"/></g><g><path d="m296.4 194.9c-1.2 1.2-3.1 1.2-4.3.1l-18.1-18.2 4.4-4.4 18.1 18.1c1.1 1.2 1.1 3.2-.1 4.4z" fill="#b3b3b3"/></g><g><path d="m274.9 218c-1.2 1.2-3.1 1.2-4.3.1l-18.9-18.9 4.4-4.4 18.9 18.9c1.1 1.2 1.1 3.1-.1 4.3z" fill="#b3b3b3"/></g><g><path d="m509.9 22.5-67.1 26.4c-14.3 5.6-27.2 14.1-38.1 24.9l-13.8-13.8 51-51 40.5-8.4c13-2.7 25.9 5.2 29.5 18 .4 1.6-.4 3.3-2 3.9z" fill="#b0ad8c"/></g></g></g></svg>